# xmcd
# 
# Track frame offsets:
#     150
#     115579
#     220593
#     328196
# 
# Disc length: 4399
# 
# Revision: 1
# Processed by: cddbd v1.5.2PL0 Copyright (c) Steve Scherf et al.
# Submitted via: BonkEnc v1.0.6
# 
DISCID=30112d04
DTITLE=R. C. Sproul - DUST to GLORY
DYEAR=1997
DGENRE=Biblical Teaching
TTITLE0=Creation
TTITLE1=The Image of God in Man
TTITLE2=The Fall
TTITLE3=- BLANK --
EXTD=
EXTT0=
EXTT1=
EXTT2=
EXTT3=
PLAYORDER=
